<svg width="128" height="128" viewBox="0 0 128 128" xmlns="http://www.w3.org/2000/svg">
  <defs>
    <linearGradient id="cookieGradient" x1="0%" y1="0%" x2="100%" y2="100%">
      <stop offset="0%" style="stop-color:#D4A574;stop-opacity:1" />
      <stop offset="100%" style="stop-color:#8B5A2B;stop-opacity:1" />
    </linearGradient>
  </defs>
  
  <!-- Cookie Base -->
  <circle cx="64" cy="64" r="50" fill="url(#cookieGradient)" />
  
  <!-- Cookie Bites -->
  <circle cx="45" cy="45" r="8" fill="#5D4037" />
  <circle cx="83" cy="50" r="6" fill="#5D4037" />
  <circle cx="70" cy="75" r="7" fill="#5D4037" />
  <circle cx="50" cy="80" r="5" fill="#5D4037" />
  <circle cx="85" cy="85" r="6" fill="#5D4037" />
  
  <!-- Cookie Bite Mark -->
  <path d="M 95 35 A 12 12 0 0 1 105 45 A 12 12 0 0 1 95 55 A 12 12 0 0 1 85 45 A 12 12 0 0 1 95 35" fill="#FFFFFF" />
  
  <!-- Highlight -->
  <ellipse cx="50" cy="50" rx="15" ry="10" fill="#FFFFFF" opacity="0.3" transform="rotate(-45 50 50)" />
</svg>